<svg width="86" height="86" viewBox="0 0 86 86" fill="none" xmlns="http://www.w3.org/2000/svg">
<path d="M43 86C66.7482 86 86 66.7482 86 43C86 19.2518 66.7482 0 43 0C19.2518 0 0 19.2518 0 43C0 66.7482 19.2518 86 43 86Z" fill="#5ED4BF"/>
<path d="M71.9168 56.6961C71.8079 56.2001 71.7353 55.6556 71.6506 55.0628L71.3118 53.1269C70.7311 49.5214 69.4365 46.6055 67.4885 44.4761C66.6537 43.5687 65.7221 43 64.7904 42.6492C65.8673 42.262 66.9078 41.5965 67.8273 40.4834C70.2229 37.6039 70.9126 33.9983 71.2271 31.5301C71.3118 30.8526 71.3844 30.2113 71.4449 29.6185C71.6264 27.8399 71.7595 26.4243 72.4612 25.7468C72.6427 25.5774 72.6669 25.2991 72.5338 25.0934C72.4007 24.8878 72.1467 24.791 71.9168 24.8757C71.4207 25.0571 70.7432 24.9967 69.7026 24.6821C69.2066 24.5369 68.6863 24.3312 68.1298 24.1013C67.5611 23.8714 66.9562 23.6295 66.3028 23.4238C64.4396 22.6978 60.7494 21.5968 56.8777 22.4075C55.6557 22.7099 54.7119 23.2181 53.9376 23.8472C54.1433 22.722 54.0949 21.4879 53.623 20.1086C53.623 20.1086 53.623 20.0965 53.623 20.0844C52.5825 17.4106 50.4894 14.8456 47.5493 12.6798C47.1016 12.3411 46.654 12.0265 46.2426 11.724C44.6576 10.5867 43.3993 9.69136 43.1452 8.73554C43.0848 8.49356 42.8791 8.32417 42.6129 8.34837C42.3709 8.34837 42.1652 8.54195 42.1289 8.78393C42.0321 9.31629 41.6329 9.88495 40.8585 10.5746C40.0721 11.2884 39.0074 12.1475 38.0516 12.9097C36.0189 14.6883 33.5386 17.1686 32.4981 20.5563C32.1351 21.7541 32.1109 22.843 32.2682 23.823C31.385 23.0729 30.2961 22.4921 28.8684 22.2502C24.9483 21.6331 21.2581 22.964 19.4311 23.7988C18.7536 24.065 18.1486 24.3433 17.58 24.6095C17.0355 24.8636 16.5274 25.1055 16.0434 25.2749C15.015 25.65 14.3132 25.7589 13.793 25.6258C13.5631 25.5653 13.309 25.6742 13.2001 25.892C13.0912 26.1098 13.1396 26.3759 13.3332 26.5332C13.7567 26.8841 14.0471 27.5133 14.2769 28.5417C14.3858 29.0377 14.4584 29.5822 14.5431 30.175L14.8819 32.1109C15.4626 35.7164 16.7572 38.6323 18.7052 40.7617C19.5521 41.6812 20.4958 42.2378 21.4396 42.5887C20.3507 42.9758 19.298 43.6292 18.3664 44.7423C15.9708 47.6219 15.2812 51.2274 14.9666 53.6956C14.8819 54.3731 14.8093 55.0144 14.7488 55.6072C14.5673 57.3858 14.4342 58.8014 13.7325 59.4789C13.551 59.6483 13.5268 59.9266 13.6599 60.1323C13.793 60.338 14.0471 60.4226 14.2769 60.3501C14.773 60.1686 15.4505 60.2291 16.4911 60.5436C16.9871 60.6888 17.5074 60.8945 18.0639 61.1244C18.6326 61.3543 19.2375 61.5963 19.8909 61.8019C21.2823 62.3464 23.7021 63.1086 26.4607 63.1086C27.3802 63.1086 28.336 63.0239 29.316 62.8183C30.538 62.5158 31.4818 62.0076 32.2561 61.3785C32.0504 62.5037 32.0988 63.7378 32.5707 65.1171C32.5707 65.1171 32.5707 65.1292 32.5707 65.1413C33.6112 67.8152 35.7043 70.3802 38.6444 72.5459C39.0921 72.8847 39.5397 73.1992 39.9511 73.5017C41.5361 74.639 42.7944 75.5344 43.0485 76.4902C43.109 76.7201 43.3146 76.8773 43.5566 76.8773C43.5566 76.8773 43.5687 76.8773 43.5808 76.8773C43.8228 76.8773 44.0285 76.6838 44.0648 76.4418C44.1616 75.9094 44.5608 75.3408 45.3352 74.6511C46.1216 73.9494 47.1379 73.1145 48.1422 72.316C50.1869 70.5374 52.6551 68.0571 53.6956 64.6694C54.0586 63.4716 54.0828 62.3827 53.9255 61.4027C54.8087 62.1528 55.8976 62.7336 57.3253 62.9755C58.0271 63.0844 58.7167 63.1328 59.3822 63.1328C62.4916 63.1328 65.2623 62.1165 66.7505 61.4269C67.428 61.1607 68.033 60.8824 68.6016 60.6162C69.1461 60.3622 69.6543 60.1202 70.1382 59.9508C71.1666 59.5757 71.8684 59.4668 72.3886 59.5999C72.6306 59.6725 72.8726 59.5515 72.9815 59.3337C73.0904 59.116 73.042 58.8498 72.8484 58.6925C72.4249 58.3416 72.1346 57.7125 71.9047 56.684L71.9168 56.6961ZM57.1075 23.4238C60.701 22.6615 64.1613 23.7021 65.9398 24.4038C66.5932 24.6095 67.174 24.8515 67.7305 25.0692C68.3113 25.2991 68.8557 25.5169 69.3881 25.6742C69.9083 25.8315 70.477 25.9767 71.0456 26.0009C70.6585 26.9083 70.5375 28.1061 70.3923 29.4975C70.3318 30.0903 70.2713 30.7195 70.1866 31.3849C69.8841 33.7201 69.2429 37.132 67.0167 39.8059C66.1818 40.798 65.2381 41.3788 64.246 41.7054C64.1976 40.7133 64.1008 39.7333 63.9314 38.7896C64.7904 37.0231 65.1292 35.1719 65.3107 33.7806C65.3833 33.2482 65.4317 32.74 65.4801 32.2682C65.6253 30.8163 65.7342 29.679 66.3391 29.0982C66.4238 29.0135 66.448 28.8804 66.3754 28.7716C66.3149 28.6627 66.1818 28.6264 66.0608 28.6627C65.6374 28.82 65.0687 28.7716 64.1976 28.5054C63.7983 28.3844 63.3748 28.215 62.9272 28.0456C62.4674 27.8641 61.9956 27.6705 61.4753 27.5012C60.4711 27.1019 58.7651 26.5816 56.8051 26.4969C56.067 25.8678 55.2685 25.287 54.4458 24.7547C55.1354 24.1618 55.9944 23.7021 57.0954 23.4238H57.1075ZM63.7499 37.9305C62.782 33.6717 60.5316 29.9089 57.4221 27.0414C59.0313 27.1987 60.4348 27.6342 61.3059 27.9851C61.8262 28.1545 62.2859 28.336 62.7336 28.5175C63.1934 28.699 63.6289 28.8683 64.0403 29.0014C64.6573 29.1829 65.1534 29.2797 65.5527 29.2676C65.1655 29.9936 65.0687 31.0099 64.9477 32.2077C64.8993 32.6795 64.8509 33.1756 64.7783 33.708C64.6332 34.8937 64.367 36.4181 63.7378 37.9305H63.7499ZM63.7499 47.2952C64.2581 48.4083 64.6331 49.6787 64.8509 51.0943L65.1171 52.6309C65.1776 53.1027 65.2502 53.5625 65.3349 53.9739C65.468 54.5909 65.6374 55.0628 65.8673 55.4257C65.4438 55.4499 64.9598 55.5588 64.3549 55.7887C63.9435 55.9339 63.52 56.1396 63.0724 56.3453C62.6247 56.551 62.1649 56.7687 61.6205 56.9744C60.701 57.3979 59.1886 57.9544 57.4342 58.1843C60.5316 55.3169 62.7699 51.554 63.7257 47.3073L63.7499 47.2952ZM33.466 20.8709C34.4218 17.7493 36.6602 15.4989 38.6928 13.7203C39.6365 12.9581 40.7254 12.087 41.524 11.361C42.02 10.9134 42.3951 10.502 42.6613 10.1027C43.3025 10.9376 44.3552 11.6877 45.6014 12.583C46.0127 12.8734 46.4483 13.188 46.896 13.5268C48.8318 14.9544 51.3847 17.3259 52.6188 20.4716C53.0544 21.7299 53.0665 22.8309 52.8608 23.8351C52.0017 23.3875 51.0943 23.0003 50.1627 22.6736C49.0738 21.0645 47.6582 19.8062 46.5088 18.9592C46.1579 18.6931 45.807 18.439 45.4683 18.2091C44.1858 17.2896 43.1694 16.5636 42.9517 15.753C42.9154 15.632 42.8065 15.5352 42.6855 15.5594C42.5645 15.5594 42.4556 15.6562 42.4435 15.7772C42.3709 16.2369 42.0321 16.7209 41.3909 17.2896C40.7617 17.8582 39.9511 18.5116 39.1526 19.1528C38.0879 20.0844 36.89 21.2459 35.9584 22.6978C35.0389 23.0245 34.1436 23.4117 33.2845 23.8593C33.1151 22.964 33.1393 21.984 33.466 20.9193V20.8709ZM49.3158 22.347C47.3436 21.742 45.2505 21.4032 43.0727 21.4032C40.8948 21.4032 38.7775 21.742 36.7933 22.347C37.6039 21.2459 38.5718 20.3143 39.4913 19.5037C40.2778 18.8745 41.1005 18.2091 41.7418 17.6404C42.2136 17.217 42.5403 16.8419 42.7339 16.4789C43.2057 17.1928 44.1011 17.8461 45.1779 18.6084C45.5046 18.8382 45.8554 19.0923 46.2063 19.3585C47.1742 20.0723 48.3357 21.0887 49.3158 22.347ZM19.4432 40.0721C17.6284 38.0878 16.4306 35.3655 15.874 31.9536L15.5352 30.0299C15.4505 29.4128 15.3658 28.8441 15.257 28.3239C15.1118 27.6705 14.9424 27.1382 14.7125 26.7026C15.1844 26.6421 15.7288 26.4969 16.3701 26.267C16.8903 26.0735 17.4227 25.8315 17.9913 25.5653C18.5358 25.3112 19.1287 25.0329 19.8062 24.7668C21.5485 23.9682 25.0209 22.722 28.6627 23.2907C29.9452 23.5085 30.9131 24.0529 31.6875 24.7547C30.8647 25.287 30.0662 25.8557 29.3281 26.4969C27.1987 26.6421 25.3476 27.3318 24.2949 27.8157C23.7505 28.0214 23.2786 28.2392 22.831 28.457C22.3954 28.6627 21.984 28.8562 21.5969 28.9893C20.7378 29.3039 20.1571 29.3886 19.7215 29.2676C19.6005 29.2313 19.4795 29.2918 19.419 29.4007C19.3585 29.5096 19.3948 29.6427 19.4795 29.7274C19.8425 30.0299 20.0966 30.5622 20.2781 31.4091C20.3628 31.7963 20.4232 32.2319 20.4958 32.7158L20.762 34.2645C21.0403 35.9826 21.5485 37.4708 22.2139 38.7775C22.0324 39.7333 21.9356 40.7133 21.8872 41.7175C21.004 41.4151 20.1692 40.919 19.419 40.0963L19.4432 40.0721ZM22.3954 37.9547C21.8872 36.8416 21.5122 35.5712 21.2944 34.1556L21.0282 32.619C20.9556 32.123 20.8951 31.6874 20.8104 31.2761C20.6773 30.659 20.5079 30.1871 20.2781 29.8242C20.7015 29.8 21.1855 29.6911 21.7904 29.4612C22.2018 29.316 22.6253 29.1103 23.0608 28.9046C23.5085 28.699 23.9683 28.4812 24.5127 28.2755C25.4323 27.852 26.9446 27.2834 28.699 27.0656C25.6016 29.9331 23.3633 33.6959 22.4075 37.9426L22.3954 37.9547ZM22.3954 47.3073C23.3633 51.5661 25.6137 55.3289 28.7232 58.1964C27.1019 58.0391 25.7105 57.6036 24.8394 57.2527C24.3191 57.0833 23.8594 56.9018 23.4117 56.7203C22.9519 56.5389 22.5164 56.3695 22.105 56.2364C21.5122 56.0549 21.0524 55.9702 20.6531 55.9702C20.641 55.9702 20.6168 55.9702 20.6047 55.9702C20.9919 55.2443 21.0887 54.24 21.2097 53.0301C21.2581 52.5583 21.3065 52.0501 21.3791 51.5299C21.5243 50.3441 21.7904 48.8197 22.4196 47.3073H22.3954ZM29.0378 61.814C25.4443 62.5763 21.984 61.5358 20.2055 60.834C19.5521 60.6283 18.9714 60.3863 18.4148 60.1686C17.8341 59.9387 17.2896 59.7209 16.7572 59.5636C16.237 59.4063 15.6683 59.2611 15.1118 59.2369C15.4989 58.3295 15.6199 57.1317 15.7651 55.7403C15.8256 55.1475 15.8861 54.5183 15.9708 53.8529C16.2733 51.5177 16.9145 48.1058 19.1407 45.4319C19.9756 44.4398 20.9193 43.8591 21.9114 43.5324C21.9598 44.5245 22.0566 45.5045 22.226 46.4483C21.367 48.2147 21.0282 50.0659 20.8467 51.4573C20.7741 51.9896 20.7257 52.4978 20.6773 52.9817C20.5321 54.4336 20.4232 55.5709 19.8183 56.1517C19.7336 56.2364 19.7094 56.3695 19.782 56.4784C19.8425 56.5872 19.9756 56.6236 20.0966 56.5872C20.52 56.43 21.0887 56.4784 21.9598 56.7445C22.3591 56.8655 22.7826 57.0349 23.2181 57.2043C23.6779 57.3858 24.1498 57.5794 24.67 57.7488C25.6863 58.148 27.3802 58.6804 29.3402 58.753C30.0783 59.3821 30.8647 59.9629 31.6875 60.4831C30.9978 61.076 30.1388 61.5358 29.0378 61.814ZM52.6672 64.3669C51.7114 67.4885 49.473 69.7389 47.4404 71.5175C46.4483 72.316 45.4078 73.1508 44.6092 73.8768C44.1132 74.3244 43.7381 74.7358 43.4719 75.1351C42.8307 74.3002 41.7781 73.5501 40.5319 72.6548C40.1205 72.3644 39.6849 72.0498 39.2373 71.7111C37.3014 70.2834 34.7485 67.912 33.5144 64.7662C33.0788 63.5079 33.0667 62.4069 33.2724 61.4027C34.1315 61.8503 35.0389 62.2375 35.9705 62.5642C37.0594 64.1734 38.475 65.4316 39.6244 66.2786C39.9874 66.5448 40.3262 66.7988 40.6649 67.0287C41.9474 67.9483 42.9638 68.6742 43.1815 69.4848C43.2178 69.5937 43.3146 69.6784 43.4356 69.6784C43.4356 69.6784 43.4356 69.6784 43.4477 69.6784C43.5687 69.6784 43.6776 69.5816 43.6897 69.4606C43.7623 69.0009 44.1011 68.5169 44.7423 67.9483C45.3715 67.3796 46.2184 66.6899 46.9806 66.085C48.0454 65.1534 49.2432 63.9919 50.1748 62.54C51.0943 62.2133 51.9897 61.8261 52.8487 61.3785C53.0181 62.2738 52.9939 63.2538 52.6672 64.3185V64.3669ZM36.8174 62.8909C38.7896 63.4958 40.8827 63.8346 43.0606 63.8346C45.2384 63.8346 47.3557 63.4958 49.34 62.8909C48.5293 63.9919 47.5614 64.9235 46.6419 65.7341C45.8917 66.3391 45.0327 67.0287 44.3914 67.5974C43.9196 68.0208 43.5929 68.3959 43.3993 68.7589C42.9275 68.045 42.0321 67.3917 40.9553 66.6295C40.6286 66.3996 40.2778 66.1455 39.9269 65.8793C38.959 65.1655 37.7975 64.1492 36.8174 62.8909ZM43.0606 62.7941C31.9415 62.7941 22.8915 53.744 22.8915 42.625C22.8915 31.5059 31.9415 22.4559 43.0606 22.4559C54.1796 22.4559 63.2297 31.5059 63.2297 42.625C63.2297 53.744 54.1796 62.7941 43.0606 62.7941ZM69.7631 58.9829C69.2429 59.1764 68.7105 59.4184 68.1419 59.6846C67.5974 59.9387 67.0046 60.217 66.327 60.4831C64.5848 61.2817 61.1123 62.5279 57.4705 61.9592C56.188 61.7414 55.2201 61.197 54.4458 60.4952C55.2685 59.9629 56.067 59.3942 56.8051 58.753C58.9345 58.6078 60.7857 57.9181 61.8383 57.4342C62.3706 57.2285 62.8425 57.0107 63.3023 56.7929C63.7378 56.5872 64.1492 56.3937 64.5364 56.2606C65.3954 55.946 65.9761 55.8613 66.4117 55.9823C66.5327 56.0186 66.6537 55.9581 66.7142 55.8492C66.7747 55.7403 66.7384 55.6072 66.6537 55.5346C66.2907 55.2322 66.0366 54.6998 65.8552 53.8529C65.7705 53.4536 65.71 53.0301 65.6374 52.5462L65.3712 50.9975C65.0929 49.2794 64.5848 47.7912 63.9193 46.4846C64.1008 45.5287 64.1976 44.5487 64.246 43.5445C65.1292 43.847 65.964 44.343 66.7142 45.1658C68.9767 47.634 69.8962 50.937 70.2834 53.2842L70.6222 55.208C70.7069 55.825 70.7916 56.3937 70.9005 56.9139C71.0456 57.5673 71.215 58.0996 71.4449 58.5352C70.973 58.5957 70.4286 58.7409 69.7873 58.9708L69.7631 58.9829Z" fill="#24224C"/>
<path d="M43.0728 24.2949C32.9701 24.2949 24.7549 32.5102 24.7549 42.6129C24.7549 52.7156 32.9701 60.9308 43.0728 60.9308C53.1755 60.9308 61.3908 52.7156 61.3908 42.6129C61.3908 32.5102 53.1755 24.2949 43.0728 24.2949ZM43.0728 60.4106C33.2605 60.4106 25.2751 52.4252 25.2751 42.6129C25.2751 32.8006 33.2605 24.8152 43.0728 24.8152C52.8852 24.8152 60.8705 32.8006 60.8705 42.6129C60.8705 52.4252 52.8852 60.4106 43.0728 60.4106Z" fill="#24224C"/>
</svg>
