<svg width="86" height="86" viewBox="0 0 86 86" fill="none" xmlns="http://www.w3.org/2000/svg">
<path d="M43 86C66.7482 86 86 66.7482 86 43C86 19.2518 66.7482 0 43 0C19.2518 0 0 19.2518 0 43C0 66.7482 19.2518 86 43 86Z" fill="#5ED4BF"/>
<path d="M76.0669 55.2321C75.2683 54.7482 74.8691 53.4415 74.373 51.7839L74.1068 50.9249C73.3809 48.6865 72.3525 46.1215 70.2351 44.0284C69.5334 43.3509 68.7953 42.9032 68.0452 42.6007C68.9163 42.2619 69.7633 41.7296 70.5497 40.8827C71.6023 39.7574 72.2678 38.4991 72.8727 37.2892C73.3688 36.1519 73.7075 35.0388 74.0342 33.962L74.1673 33.478C74.6271 31.5422 75.0142 29.8604 75.8249 29.2676C76.0306 29.1224 76.0911 28.8562 75.9943 28.6263C75.8854 28.3964 75.6434 28.2755 75.4014 28.3359C74.5545 28.5416 73.4535 27.973 72.0621 27.2349C71.7112 27.0534 71.3482 26.8599 70.9732 26.6784C69.0494 25.6742 66.4481 24.5368 63.4476 24.5368H63.375C62.407 24.5368 61.5722 24.7546 60.8221 25.0692C61.1971 24.2223 61.4149 23.2422 61.3665 22.0928C61.2213 19.0802 59.9267 16.4668 58.8136 14.5188L58.3902 13.8292C57.4585 12.2926 56.7205 11.0827 56.8778 10.139C56.9141 9.897 56.781 9.65502 56.539 9.55823C56.3091 9.47354 56.0429 9.55823 55.9099 9.77601C55.4259 10.5745 54.1192 10.9738 52.4616 11.4699L51.6026 11.7361C49.3643 12.462 46.7993 13.4904 44.7061 15.6078C44.0286 16.3095 43.5809 17.0475 43.2785 17.7977C42.9397 16.9386 42.4073 16.0917 41.5604 15.2932C40.4352 14.2406 39.189 13.5751 37.967 12.9702C36.8297 12.4741 35.7165 12.1353 34.6276 11.8087L34.1437 11.6756C32.2078 11.2158 30.5261 10.8286 29.9332 10.018C29.788 9.81231 29.5218 9.75182 29.292 9.84861C29.0621 9.9575 28.9411 10.1995 29.0016 10.4415C29.2073 11.2884 28.6386 12.3894 27.9006 13.7808C27.7191 14.1317 27.5255 14.4946 27.344 14.8697C26.3398 16.8177 25.1783 19.4431 25.2025 22.48C25.2025 23.4479 25.4203 24.2828 25.7348 25.0208C24.8879 24.6457 23.9079 24.428 22.7585 24.4764C19.7458 24.6215 17.1324 25.9161 15.1966 27.0293L14.5069 27.4527C12.9703 28.3843 11.7483 29.1224 10.8167 28.9651C10.5747 28.9288 10.3328 29.0619 10.236 29.2918C10.1513 29.5217 10.236 29.7878 10.4537 29.9209C11.2523 30.4049 11.6516 31.7116 12.1476 33.3692L12.4138 34.2282C13.1397 36.4665 14.1682 39.0315 16.2855 41.1246C16.9751 41.8022 17.7132 42.2498 18.4633 42.5523C17.6043 42.8911 16.7573 43.4235 15.9709 44.2704C14.9183 45.3956 14.2528 46.6539 13.6479 47.8638C13.1518 49.0011 12.8131 50.1263 12.4864 51.2031L12.3654 51.675C11.9056 53.6229 11.5185 55.2926 10.7078 55.8855C10.5021 56.0307 10.4416 56.2968 10.5384 56.5267C10.6473 56.7566 10.8893 56.8776 11.1313 56.8171C11.9903 56.6114 13.0792 57.1801 14.4706 57.9181C14.8215 58.0996 15.1845 58.2932 15.5595 58.4747C17.4833 59.4789 20.0846 60.6162 23.0851 60.6162H23.1577C24.1257 60.6162 24.9605 60.3984 25.7106 60.0838C25.3356 60.9308 25.1178 61.9108 25.1662 63.0602C25.2993 66.0729 26.606 68.6863 27.7191 70.6342L28.1425 71.3239C29.0742 72.8604 29.8122 74.0703 29.6549 75.0141C29.6186 75.256 29.7517 75.498 29.9816 75.5948C30.0421 75.619 30.1026 75.6311 30.1631 75.6311C30.3446 75.6311 30.514 75.5343 30.6108 75.377C31.0947 74.5785 32.4014 74.1792 34.059 73.6832L34.918 73.417C37.1563 72.691 39.7213 71.6626 41.8145 69.5453C42.492 68.8435 42.9397 68.1055 43.2422 67.3554C43.5809 68.2144 44.1133 69.0613 44.9602 69.8599C46.0854 70.9125 47.3316 71.5779 48.5536 72.1829C49.6909 72.6789 50.8041 73.0177 51.893 73.3444L52.3648 73.4654C54.3128 73.9251 55.9824 74.3123 56.5753 75.123C56.6721 75.256 56.8294 75.3407 56.9988 75.3407C57.0714 75.3407 57.144 75.3286 57.2165 75.2923C57.4464 75.1834 57.5674 74.9415 57.5069 74.6995C57.3012 73.8526 57.8699 72.7515 58.6079 71.3601C58.7894 71.0093 58.983 70.6463 59.1645 70.2712C60.1687 68.3233 61.3302 65.6978 61.306 62.6609C61.306 61.6809 61.0882 60.8461 60.7737 60.108C61.548 60.4468 62.4433 60.6646 63.4718 60.6646C63.5685 60.6646 63.6532 60.6646 63.75 60.6646C66.7627 60.5315 69.3761 59.2248 71.3119 58.1117L72.0016 57.6882C73.5382 56.7566 74.7602 56.0186 75.6918 56.1758C75.9338 56.2121 76.1758 56.0791 76.2725 55.8492C76.3572 55.6193 76.2725 55.3531 76.0548 55.22L76.0669 55.2321ZM63.375 25.5895C66.1456 25.5895 68.6501 26.6663 70.5013 27.6221C70.8764 27.8157 71.2393 27.9972 71.5781 28.1787C72.6307 28.7352 73.5382 29.2071 74.3972 29.3765C73.8406 30.3202 73.5261 31.6632 73.151 33.2482L73.0421 33.6716C72.7275 34.7242 72.4008 35.8011 71.9411 36.8658C71.3845 37.9789 70.7554 39.1646 69.7996 40.1809C68.4566 41.6207 66.8837 42.02 65.3834 42.0563C65.3834 41.6933 65.3592 41.3303 65.3229 40.9674C66.0851 40.1083 66.5933 39.1646 67.0531 38.2572C67.4523 37.3497 67.7185 36.4544 67.9847 35.5833L68.0815 35.2082C68.4566 33.6111 68.7832 32.2197 69.485 31.7116C69.5818 31.639 69.6181 31.5059 69.5697 31.3849C69.5213 31.276 69.3882 31.2155 69.2672 31.2397C68.5171 31.4212 67.6096 30.9493 66.4602 30.3444C66.1819 30.1992 65.8916 30.0419 65.5891 29.8967C64.1493 29.1466 62.2377 28.3117 60.0477 28.2029C59.7936 27.9125 59.5396 27.6342 59.2734 27.3559C60.3139 26.3638 61.5843 25.6258 63.375 25.6016V25.5895ZM44.1859 63.6289L45.6015 61.1244C54.8088 59.9749 61.9594 52.1106 61.9594 42.5886C61.9594 39.8663 61.3665 37.2892 60.3139 34.9541L61.7295 32.4254C63.3992 35.4381 64.355 38.8984 64.355 42.5886C64.355 53.9012 55.3896 63.1449 44.1859 63.6289ZM57.1198 59.8298C56.9262 61.7293 56.176 63.3869 55.5106 64.6694C55.3533 64.9719 55.2081 65.2622 55.0629 65.5405C54.5669 66.4842 54.1434 67.2828 54.0708 68.0208C53.3207 67.4885 52.1229 67.2102 50.7799 66.8956L50.429 66.7988C49.5821 66.5447 48.6988 66.2785 47.8277 65.8914C47.1017 65.5284 46.3516 65.1291 45.6499 64.5847C49.9692 64.1249 53.9135 62.4069 57.1198 59.8177V59.8298ZM45.9281 60.5436L60.0114 35.5107C60.931 37.6885 61.4512 40.0841 61.4512 42.5886C61.4512 51.6992 54.6999 59.249 45.9281 60.5436ZM65.2624 44.9963C66.4239 46.424 67.0652 48.0695 67.5491 49.5335C67.6217 49.7634 67.6943 49.9932 67.7548 50.211C68.0936 51.3362 68.384 52.2921 68.8921 52.9091C68.0815 53.0422 67.1983 53.5746 66.1577 54.2158L65.6012 54.5425C64.1735 55.3652 62.4675 56.2121 60.4833 56.4541C63.0725 53.2479 64.7905 49.3036 65.2624 44.9842V44.9963ZM60.5075 28.7352C62.407 28.9288 64.0646 29.6789 65.3471 30.3444C65.6496 30.5017 65.94 30.6469 66.2182 30.7921C67.162 31.2881 67.9605 31.7116 68.6864 31.7842C68.1541 32.5343 67.8758 33.7321 67.5612 35.0751L67.4644 35.426C67.2104 36.2729 66.9442 37.1562 66.557 38.0273C66.1819 38.7774 65.7827 39.5155 65.2503 40.2051C64.7906 35.8858 63.0725 31.9415 60.4833 28.7231L60.5075 28.7352ZM45.4684 16.3458C47.4042 14.3978 49.824 13.4299 51.9293 12.7403L52.7641 12.4862C54.0345 12.099 55.1234 11.7724 55.9099 11.24C56.1518 12.1837 56.7689 13.2 57.4827 14.3857L57.8941 15.0633C59.0193 17.0112 60.1808 19.3827 60.3139 22.1533C60.3865 24.1134 59.5517 25.5048 58.5111 26.5937C58.245 26.3396 57.9788 26.0976 57.7005 25.8677C57.5432 23.5447 56.5511 21.5242 55.6679 19.9997L55.3291 19.4431C54.5548 18.1727 53.9498 17.1685 54.0829 16.3458C54.1071 16.2248 54.0345 16.1038 53.9135 16.0554C53.7925 16.007 53.6594 16.0554 53.5989 16.1643C53.1755 16.8661 52.0987 17.1927 50.7194 17.6041C50.5016 17.6767 50.2717 17.7372 50.0297 17.8098C48.3721 18.3421 46.4968 19.1044 44.9118 20.5321C44.5368 20.5079 44.1496 20.4837 43.7745 20.4716C43.8108 19.0439 44.1859 17.6162 45.4321 16.3337L45.4684 16.3458ZM57.144 25.3717C53.9377 22.7825 49.9934 21.0644 45.6741 20.5926C47.1017 19.4311 48.7472 18.7898 50.2112 18.3058C50.4411 18.2332 50.671 18.1607 50.8888 18.1002C52.014 17.7614 52.9698 17.471 53.5868 16.9628C53.7199 17.7735 54.2523 18.6567 54.8935 19.6972L55.2323 20.2538C56.055 21.6815 56.902 23.3874 57.144 25.3717ZM60.81 30.9009H57.8336C54.4096 26.63 49.1586 23.8956 43.2663 23.8956C37.3741 23.8956 32.1231 26.6421 28.6991 30.9009H25.7227C29.5097 25.2386 35.9585 21.5 43.2663 21.5C50.5742 21.5 57.023 25.2386 60.81 30.9009ZM57.1682 30.9009H29.3767C32.716 26.9446 37.7008 24.4159 43.2663 24.4159C48.8319 24.4159 53.8288 26.9446 57.1561 30.9009H57.1682ZM24.5854 42.5886C24.5854 52.1106 31.736 59.9628 40.9433 61.1244L42.3589 63.6289C31.1552 63.1449 22.1898 53.9012 22.1898 42.5886C22.1898 38.9105 23.1456 35.4381 24.8153 32.4254L26.2309 34.9541C25.1783 37.2892 24.5854 39.8663 24.5854 42.5886ZM26.5455 35.5107L40.6288 60.5436C31.8691 59.249 25.1057 51.6992 25.1057 42.5886C25.1057 40.072 25.6138 37.6885 26.5455 35.5107ZM40.8707 64.5847C39.4431 65.7462 37.7976 66.3874 36.3336 66.8714C36.1037 66.944 35.8738 67.0166 35.6561 67.0771C34.5308 67.4159 33.575 67.7062 32.958 68.2144C32.8249 67.4038 32.2925 66.5205 31.6513 65.48L31.3246 64.9235C30.5019 63.4958 29.6549 61.7898 29.4129 59.8056C32.6192 62.3948 36.5635 64.1128 40.8828 64.5847H40.8707ZM26.0494 56.442C24.1499 56.2484 22.4923 55.4983 21.2098 54.8329C20.9073 54.6756 20.6169 54.5304 20.3387 54.3852C19.3949 53.8891 18.5964 53.4657 17.8584 53.3931C18.3907 52.6429 18.669 51.4451 18.9836 50.1021L19.0804 49.7513C19.3344 48.9043 19.6006 48.0211 19.9757 47.15C20.3387 46.424 20.7379 45.6739 21.2824 44.9721C21.7422 49.2915 23.4602 53.2358 26.0494 56.442ZM21.2945 40.1809C20.133 38.7532 19.4917 37.1078 19.0078 35.6438C18.9352 35.4139 18.8626 35.184 18.8021 34.9662C18.4633 33.841 18.1729 32.8852 17.6648 32.2681C18.4754 32.135 19.3465 31.6027 20.3992 30.9614L20.9557 30.6227C22.3834 29.7999 24.0894 28.953 26.0736 28.711C23.4844 31.9173 21.7664 35.8616 21.2945 40.1809ZM29.4371 25.3596C29.6307 23.4721 30.3809 21.8025 31.0463 20.52C31.2036 20.2175 31.3488 19.9271 31.494 19.6488C31.99 18.7051 32.4135 17.9066 32.4861 17.1685C33.2362 17.7009 34.434 17.9792 35.777 18.2937L36.1279 18.3905C36.9748 18.6446 37.8581 18.9108 38.7292 19.298C39.4552 19.6609 40.2053 20.0602 40.907 20.6047C36.5877 21.0644 32.6434 22.7825 29.4371 25.3717V25.3596ZM28.3119 15.3658C28.5055 14.9907 28.687 14.6277 28.8685 14.289C29.425 13.2363 29.8969 12.3289 30.0663 11.4699C31.01 12.0264 32.353 12.341 33.938 12.7161L34.3615 12.825C35.4141 13.1395 36.4909 13.4662 37.5556 13.926C38.7171 14.5067 39.8544 15.1117 40.8707 16.0675C42.3105 17.4105 42.7098 18.9834 42.7461 20.4837C42.3831 20.4837 42.0202 20.5079 41.6572 20.5442C40.7981 19.7819 39.8544 19.2738 38.947 18.814C38.0396 18.4147 37.1442 18.1486 36.2731 17.8824L35.898 17.7856C34.301 17.4105 32.9096 17.0838 32.4014 16.3821C32.3288 16.2853 32.1957 16.249 32.0868 16.2974C31.9779 16.3458 31.9174 16.4789 31.9416 16.5999C32.1231 17.35 31.6513 18.2574 31.0463 19.4069C30.9011 19.6851 30.7438 19.9755 30.5866 20.278C29.8364 21.7178 29.0016 23.6294 28.8927 25.8193C28.6023 26.0734 28.324 26.3275 28.0458 26.5937C27.0536 25.5532 26.3156 24.2828 26.2914 22.4921C26.2672 19.6851 27.3682 17.2169 28.324 15.3658H28.3119ZM17.0356 40.3987C15.0877 38.4628 14.1198 36.043 13.4301 33.9378L13.176 33.103C12.7889 31.8326 12.4622 30.7437 11.9298 29.9572C12.8736 29.7152 13.8899 29.0982 15.0756 28.3843L15.7531 27.973C17.7011 26.8478 20.0725 25.6863 22.8432 25.5532C24.7911 25.4806 26.1946 26.3154 27.2835 27.3559C27.0294 27.6221 26.7875 27.8883 26.5576 28.1545C24.2346 28.3117 22.214 29.3039 20.6895 30.1871L20.133 30.5259C18.8626 31.3002 17.8584 31.9052 17.0356 31.7721C16.9146 31.7479 16.7936 31.8205 16.7452 31.9415C16.6969 32.0625 16.7453 32.1955 16.8541 32.256C17.5559 32.6795 17.8826 33.7563 18.2939 35.1356C18.3665 35.3534 18.427 35.5833 18.4996 35.8253C19.032 37.4828 19.7942 39.3582 21.2219 40.9432C21.1977 41.3182 21.1735 41.7054 21.1614 42.0805C19.7337 42.0442 18.306 41.6691 17.0235 40.4229L17.0356 40.3987ZM23.1698 59.5878H23.0972C20.3145 59.5878 17.8705 58.511 16.0435 57.5551C15.6684 57.3616 15.3055 57.1801 14.9667 56.9986C13.9141 56.442 13.0066 55.9702 12.1476 55.8008C12.7042 54.8571 13.0187 53.502 13.3938 51.917L13.5027 51.5056C13.8173 50.453 14.144 49.3641 14.6037 48.3115C15.1845 47.15 15.7894 46.0126 16.7452 44.9963C18.0882 43.5565 19.6611 43.1573 21.1614 43.121C21.1614 43.484 21.1856 43.8469 21.2219 44.2099C20.4597 45.0689 19.9515 46.0126 19.4917 46.9201C19.0925 47.8275 18.8263 48.7228 18.5601 49.5819L18.4512 49.969C18.0761 51.5661 17.7495 52.9575 17.0477 53.4657C16.9509 53.5383 16.9146 53.6713 16.963 53.7923C17.0114 53.9012 17.1445 53.9617 17.2655 53.9375C18.0156 53.756 18.9231 54.2279 20.0725 54.8329C20.3508 54.978 20.6411 55.1353 20.9436 55.2926C22.3834 56.0428 24.2951 56.8776 26.485 56.9865C26.7391 57.2769 26.9931 57.5551 27.2593 57.8334C26.2188 58.8255 24.9484 59.5636 23.1577 59.5878H23.1698ZM41.0764 68.8314C39.1406 70.7794 36.7208 71.7473 34.6155 72.437L33.7807 72.691C32.5103 73.0782 31.4214 73.4049 30.635 73.9372C30.393 72.9935 29.7759 71.9772 29.0621 70.7915L28.6507 70.1139C27.5255 68.166 26.364 65.7946 26.2309 63.0239C26.1583 61.0639 26.9931 59.6725 28.0337 58.5836C28.2998 58.8376 28.566 59.0796 28.8322 59.3095C28.9895 61.6325 29.9937 63.6531 30.8648 65.1775L31.2036 65.7341C31.9779 67.0045 32.5829 68.0087 32.4498 68.8314C32.4256 68.9524 32.4982 69.0734 32.6192 69.1218C32.6434 69.1218 32.6797 69.1339 32.7039 69.1339C32.7886 69.1339 32.8733 69.0855 32.9217 69.0129C33.3451 68.3112 34.422 67.9845 35.8012 67.5731C36.019 67.5006 36.2489 67.4401 36.4909 67.3554C38.1485 66.823 40.0238 66.0608 41.6088 64.6331C41.9839 64.6573 42.371 64.6815 42.7461 64.6936C42.7098 66.1213 42.3347 67.549 41.0885 68.8314H41.0764ZM25.7348 31.9536H60.8221L43.2785 63.1449L25.7348 31.9536ZM58.245 69.8236C58.0514 70.1986 57.8699 70.5616 57.6884 70.9004C57.1319 71.953 56.66 72.8604 56.4906 73.7195C55.5469 73.1629 54.1918 72.8483 52.6068 72.4733L52.1954 72.3644C51.1428 72.0498 50.0539 71.7231 49.0013 71.2634C47.8398 70.6826 46.7025 70.0777 45.6862 69.1218C44.2464 67.7788 43.8471 66.206 43.8108 64.7057C44.1738 64.7057 44.5368 64.6815 44.8997 64.6452C45.7588 65.4074 46.7025 65.9156 47.6099 66.3753C48.5173 66.7746 49.4127 67.0408 50.2838 67.307L50.671 67.4038C52.268 67.7788 53.6594 68.1055 54.1676 68.8073C54.216 68.8798 54.3007 68.9161 54.3733 68.9161C54.4096 68.9161 54.4459 68.9161 54.4822 68.8919C54.5911 68.8435 54.6516 68.7105 54.6274 68.5895C54.4459 67.8393 54.9177 66.9319 55.5227 65.7825C55.6679 65.5042 55.8252 65.2138 55.9703 64.9114C56.7205 63.4716 57.5553 61.5599 57.6642 59.37C57.9546 59.1159 58.2329 58.8618 58.5111 58.5957C59.5033 59.6362 60.2413 60.9066 60.2655 62.6972C60.2897 65.5042 59.1887 67.9724 58.2329 69.8236H58.245ZM71.4813 56.8171L70.8038 57.2285C68.8558 58.3537 66.4844 59.5152 63.7137 59.6483C61.7537 59.7209 60.3623 58.886 59.2734 57.8455C59.5275 57.5793 59.7694 57.3132 59.9993 57.047C62.3223 56.8897 64.3429 55.8976 65.8674 55.0143L66.4239 54.6756C67.6943 53.9012 68.6985 53.2963 69.5213 53.4294C69.6423 53.4536 69.7633 53.381 69.8117 53.26C69.8601 53.139 69.8117 53.0059 69.7028 52.9454C69.001 52.5219 68.6743 51.4451 68.263 50.0658C68.1904 49.848 68.1299 49.6182 68.0573 49.3762C67.5249 47.7186 66.7627 45.8433 65.335 44.2583C65.3592 43.8832 65.3834 43.496 65.3955 43.121C66.8232 43.1573 68.2509 43.5323 69.5334 44.7785C71.4813 46.7144 72.4492 49.1342 73.1389 51.2394L73.393 52.0743C73.7801 53.3447 74.1068 54.4336 74.6392 55.22C73.6954 55.462 72.6791 56.0791 71.4934 56.7929L71.4813 56.8171Z" fill="#24224C"/>
<path d="M56.7081 34.204C56.6597 34.1193 56.575 34.0709 56.4782 34.0709H30.066C29.9692 34.0709 29.8845 34.1193 29.8361 34.204C29.7877 34.2887 29.7877 34.3855 29.8361 34.4581L43.0362 57.9423C43.0846 58.027 43.1692 58.0754 43.266 58.0754C43.3628 58.0754 43.4475 58.027 43.4959 57.9423L56.696 34.4581C56.7444 34.3734 56.7444 34.2766 56.696 34.204H56.7081ZM43.2781 57.289L30.5136 34.6033H56.0305L43.266 57.289H43.2781Z" fill="#24224C"/>
</svg>
