<svg width="86" height="86" viewBox="0 0 86 86" fill="none" xmlns="http://www.w3.org/2000/svg">
<path d="M43 0C66.7504 0 86 19.2496 86 43C86 66.7504 66.7504 86 43 86C19.2496 86 0 66.7504 0 43C0 19.2496 19.2496 0 43 0Z" fill="#5ED4BF"/>
<path d="M73.4169 42.2982C73.9977 41.7538 74.5301 41.1367 75.014 40.4471C75.377 39.8663 75.6916 39.2856 76.0061 38.6927C76.5143 37.749 76.9499 36.9263 77.458 36.7327C77.7 36.6359 77.8331 36.3818 77.7726 36.1398C77.7121 35.8858 77.5185 35.7164 77.2281 35.7285C76.6837 35.7406 76.0303 35.2324 75.2076 34.5791C74.2397 33.8047 73.0298 32.8247 71.348 32.256C70.9971 32.1351 70.6463 32.0504 70.2954 32.0262C70.5858 31.6995 70.8398 31.3486 71.0334 30.9372C71.8078 29.316 71.953 27.7673 72.0618 26.5332C72.1586 25.4806 72.2312 24.6457 72.6547 24.2586C72.8483 24.0892 72.8725 23.7988 72.7394 23.581C72.5942 23.3632 72.3159 23.2907 72.086 23.3995C71.5658 23.6415 70.5979 23.3632 69.6783 23.085L69.3759 23.0003C68.8919 22.8551 68.3353 22.6978 67.7183 22.5768C66.8593 22.4437 66.0728 22.3953 65.3106 22.4437C64.9355 22.4679 64.5846 22.5405 64.2701 22.6373C64.4153 22.2259 64.4999 21.7904 64.512 21.3427C64.5967 19.5641 64.137 18.076 63.774 16.8903C63.4594 15.8739 63.2053 15.0754 63.4473 14.5672C63.5562 14.3374 63.4715 14.0591 63.2537 13.9139C63.036 13.7687 62.7577 13.805 62.5762 13.9986C62.2011 14.4221 61.3663 14.5067 60.3137 14.6277C59.0796 14.7608 57.543 14.9302 55.9459 15.7167C55.6193 15.8739 55.3168 16.0675 55.0506 16.2853C55.0264 15.8497 54.9417 15.4263 54.7844 15.0028C54.5182 14.3011 54.1674 13.5872 53.6955 12.825C53.3446 12.3168 52.9696 11.8571 52.6429 11.4578L52.4614 11.2279C51.8443 10.4778 51.2031 9.70343 51.2152 9.13477C51.2152 8.88069 51.0337 8.65081 50.7917 8.61451C50.5377 8.56612 50.2957 8.71131 50.211 8.95329C50.0295 9.47355 49.2915 9.87281 48.3598 10.381C47.2709 10.9738 45.9158 11.7119 44.7422 13.0428C44.4881 13.321 44.2824 13.6114 44.1131 13.9381C43.9195 13.5509 43.7017 13.1759 43.3992 12.8492C42.8548 12.2684 42.2377 11.7361 41.5481 11.2521C40.9673 10.8891 40.3987 10.5746 39.7937 10.26C38.85 9.75182 38.0393 9.31626 37.8337 8.8081C37.7369 8.56612 37.4828 8.43303 37.2408 8.49352C36.9867 8.55402 36.8173 8.7718 36.8294 9.02588C36.8657 9.58244 36.3334 10.2237 35.68 11.0464C34.9057 12.0143 33.9257 13.2242 33.357 14.906C33.236 15.2569 33.1513 15.6078 33.1271 15.9586C32.8005 15.6683 32.4496 15.4142 32.0382 15.2206C30.4169 14.4463 28.8683 14.3011 27.6342 14.1922C26.5815 14.0954 25.7467 14.0228 25.3595 13.5993C25.1902 13.4057 24.8998 13.3815 24.682 13.5267C24.4642 13.6719 24.3916 13.9502 24.5005 14.1801C24.7425 14.7003 24.4763 15.6199 24.198 16.5878L24.1133 16.8903C23.9682 17.3742 23.8109 17.9308 23.6899 18.5478C23.5568 19.4069 23.5084 20.1933 23.5447 20.9555C23.5689 21.3185 23.6294 21.6573 23.7262 21.9961C23.3148 21.8509 22.8913 21.7662 22.4437 21.7541C20.6651 21.6573 19.1769 22.1291 17.9912 22.4921C16.9749 22.8067 16.1764 23.0608 15.6682 22.8188C15.4383 22.7099 15.16 22.7946 15.0149 23.0124C14.8697 23.2302 14.9181 23.5205 15.0996 23.6899C15.523 24.065 15.6077 24.8998 15.7287 25.9524C15.8618 27.1865 16.0312 28.7231 16.8176 30.3202C16.987 30.6711 17.1927 30.9493 17.3984 31.2155C16.9628 31.2397 16.5272 31.3244 16.1038 31.4817C15.3899 31.7479 14.6882 32.0988 13.9259 32.5706C13.4178 32.9215 12.9701 33.2845 12.5709 33.6111L12.3289 33.8047C11.5787 34.4218 10.8165 35.0267 10.2357 35.0509C9.98166 35.0267 9.75178 35.2324 9.71548 35.4744C9.66708 35.7285 9.81227 35.9704 10.0543 36.0551C10.5745 36.2366 10.9738 36.9747 11.4819 37.9063C12.0748 38.9952 12.8128 40.3503 14.1437 41.5239C14.422 41.778 14.7245 41.9716 15.0512 42.141C14.6519 42.3345 14.2768 42.5523 13.938 42.8669C13.3573 43.4114 12.8249 44.0284 12.341 44.7181C11.978 45.2988 11.6634 45.8796 11.3489 46.4724C10.8407 47.4161 10.4051 48.2389 9.89697 48.4325C9.65499 48.5293 9.5219 48.7833 9.58239 49.0253C9.64289 49.2794 9.84857 49.4488 10.1147 49.4367C10.6834 49.4367 11.3126 49.9327 12.1353 50.5861C13.1032 51.3604 14.3131 52.3405 15.9949 52.9091C16.3458 53.0301 16.7087 53.1027 17.0596 53.1269C16.7692 53.4536 16.503 53.8044 16.3095 54.2279C15.5351 55.8492 15.3899 57.3979 15.281 58.632C15.1842 59.6846 15.1117 60.5194 14.6882 60.9066C14.4946 61.076 14.4704 61.3663 14.6035 61.5841C14.7487 61.8019 15.027 61.8745 15.2568 61.7656C15.7771 61.5236 16.745 61.8019 17.6646 62.0802L17.967 62.1649C18.451 62.3101 19.0075 62.4674 19.6246 62.5883C20.29 62.6972 20.9071 62.7456 21.4999 62.7456C21.6814 62.7456 21.8508 62.7456 22.0323 62.7335C22.4074 62.7093 22.7461 62.6367 23.0728 62.5399C22.9276 62.9513 22.8429 63.3869 22.8308 63.8345C22.7462 65.6131 23.2059 67.1013 23.5689 68.287C23.8835 69.3033 24.1375 70.1019 23.8956 70.61C23.7867 70.8399 23.8714 71.1182 24.0891 71.2634C24.1738 71.3239 24.2706 71.3481 24.3795 71.3481C24.5247 71.3481 24.6699 71.2876 24.7667 71.1787C25.1418 70.7552 25.9766 70.6705 27.0171 70.5495C28.2512 70.4164 29.7878 70.247 31.3849 69.4606C31.7115 69.3033 32.014 69.1097 32.2802 68.8919C32.3044 69.3275 32.3891 69.751 32.5464 70.1744C32.8126 70.8883 33.1634 71.59 33.6353 72.3523C33.9741 72.8604 34.3491 73.3081 34.6758 73.7074L34.8694 73.9493C35.4864 74.6995 36.1277 75.4738 36.1156 76.0425C36.1156 76.2966 36.2971 76.5143 36.5391 76.5627C36.5754 76.5627 36.5996 76.5627 36.6359 76.5627C36.8536 76.5627 37.0472 76.4296 37.1319 76.2119C37.3134 75.6916 38.0514 75.2923 38.9831 74.7842C40.072 74.1913 41.4271 73.4533 42.6007 72.1224C42.8548 71.8441 43.0604 71.5537 43.2298 71.2271C43.4234 71.6142 43.6412 71.9893 43.9437 72.316C44.4881 72.8967 45.1052 73.4291 45.7948 73.913C46.3635 74.276 46.9442 74.5785 47.4403 74.8447L47.5371 74.8931C48.4808 75.4012 49.2914 75.8368 49.4971 76.345C49.5818 76.5506 49.7754 76.6716 49.9811 76.6716C50.0174 76.6716 50.0537 76.6716 50.09 76.6595C50.3441 76.599 50.5135 76.3812 50.5014 76.1272C50.4651 75.5706 50.9974 74.9294 51.6508 74.1066C52.4251 73.1387 53.4051 71.9288 53.9738 70.247C54.0948 69.8962 54.1795 69.5453 54.2037 69.1944C54.5303 69.4848 54.8812 69.7389 55.2805 69.9325C56.9017 70.7068 58.4504 70.852 59.6845 70.9609C60.7371 71.0577 61.572 71.1303 61.9591 71.5537C62.0559 71.6626 62.2011 71.7231 62.3463 71.7231C62.4431 71.7231 62.552 71.6989 62.6367 71.6384C62.8545 71.4932 62.9271 71.215 62.8182 70.9851C62.5762 70.4648 62.8424 69.5453 63.1328 68.5774L63.2295 68.2507C63.3747 67.7667 63.532 67.2223 63.6409 66.6052C63.774 65.7462 63.8224 64.9598 63.7861 64.1975C63.7619 63.8224 63.6893 63.4716 63.5925 63.157C64.0039 63.3022 64.4395 63.3869 64.8871 63.399C65.0323 63.399 65.1896 63.399 65.3348 63.399C66.9198 63.399 68.2507 62.9876 69.3396 62.6488C70.3559 62.3343 71.1544 62.0802 71.6626 62.3222C71.8925 62.4311 72.1707 62.3464 72.3159 62.1286C72.4611 61.9108 72.4127 61.6204 72.2312 61.451C71.8078 61.076 71.7231 60.2411 71.6021 59.1885C71.469 57.9544 71.2996 56.4178 70.5132 54.8208C70.3438 54.4699 70.1381 54.1795 69.9203 53.9133C70.3559 53.8891 70.7915 53.8165 71.2149 53.6592C71.9288 53.3931 72.6305 53.0422 73.3806 52.5703C73.8888 52.2195 74.3365 51.8565 74.7357 51.5298L74.9777 51.3362C75.7158 50.7192 76.4901 50.09 77.0588 50.09C77.0588 50.09 77.0708 50.09 77.0829 50.09C77.337 50.09 77.5548 49.9085 77.5911 49.6666C77.6395 49.4125 77.4943 49.1705 77.2523 49.0858C76.7321 48.9043 76.3328 48.1663 75.8246 47.2347C75.2318 46.1457 74.4938 44.7907 73.1629 43.617C72.8846 43.363 72.5942 43.1573 72.2796 42.9879C72.6668 42.7943 73.0419 42.5765 73.3685 42.2741L73.4169 42.2982ZM65.3469 23.4963C66.0365 23.46 66.7504 23.4963 67.5247 23.6173C68.0692 23.7262 68.5773 23.8714 69.0613 24.0045L69.3759 24.0892C70.0534 24.2949 70.7189 24.4885 71.3238 24.5248C71.1544 25.0692 71.0939 25.7226 71.0213 26.4243C70.9124 27.6463 70.7794 29.0256 70.0897 30.4775C69.4968 31.76 68.3595 32.2681 67.5005 32.5222C67.3916 32.256 67.2706 32.002 67.1496 31.7358C67.5126 30.6832 67.6094 29.691 67.682 28.8683C67.7667 27.9246 67.8393 27.1865 68.2386 26.8115C68.3353 26.7268 68.3474 26.5816 68.2748 26.4727C68.2023 26.3638 68.0692 26.3275 67.9482 26.388C67.44 26.63 66.6294 26.388 65.7582 26.1339L65.4921 26.0613C65.0686 25.9403 64.6209 25.8073 64.1128 25.7105C63.7861 25.6621 63.4594 25.6258 63.157 25.6016C62.9755 25.3838 62.7819 25.1781 62.5883 24.9724C63.1691 24.307 64.0402 23.5447 65.3469 23.4721V23.4963ZM68.42 35.1235C69.0734 35.5107 69.6299 35.9463 70.1018 36.3213C70.6584 36.769 71.1423 37.1562 71.6263 37.3497C71.2391 37.7369 70.9366 38.3177 70.5858 38.9589L70.5495 39.0194C70.3075 39.4671 70.0655 39.9268 69.7751 40.3987C69.6783 40.5439 69.5573 40.677 69.4485 40.8222C69.3154 38.8621 68.9645 36.9505 68.4079 35.1356L68.42 35.1235ZM70.489 46.9201C70.8398 47.5492 71.1302 48.0937 71.5053 48.4567C70.985 48.6744 70.4769 49.0979 69.9324 49.5335L69.7267 49.7029C69.388 49.9811 69.0371 50.2715 68.6378 50.5498C68.4805 50.6466 68.3353 50.7192 68.1781 50.8039C68.783 49.0011 69.1944 47.1137 69.388 45.1657C69.8356 45.7707 70.1865 46.3877 70.4769 46.9201H70.489ZM68.4805 42.6007C68.4805 55.8613 58.027 66.7141 44.9358 67.3796L46.5934 64.379C57.3373 62.9392 65.6615 53.7318 65.6615 42.5886C65.6615 39.3582 64.9476 36.3092 63.6893 33.5385L65.3469 30.5501C67.3311 34.1193 68.4684 38.2209 68.4684 42.5886L68.4805 42.6007ZM66.7988 56.8534C66.8714 57.5672 66.944 58.1722 67.1496 58.6562H67.1375C66.6173 58.6562 66.0365 58.8376 65.359 59.0554C64.7298 59.249 63.9797 59.4668 63.157 59.5757C64.4274 58.1238 65.5405 56.5267 66.46 54.8208C66.6536 55.5588 66.7383 56.2605 66.7988 56.8655V56.8534ZM60.0596 62.5883C60.0475 62.7093 60.0354 62.8303 60.0233 62.9634C59.9386 63.4474 59.8055 63.8829 59.6845 64.2943L59.6119 64.5484C59.4183 65.2138 59.2248 65.8551 59.2369 66.4116C58.7529 66.206 58.1358 66.1455 57.422 66.085C56.7687 66.0245 56.0064 65.9398 55.2079 65.7341C56.9501 64.863 58.5835 63.8103 60.0717 62.5762L60.0596 62.5883ZM51.1426 67.3554C50.7554 68.0087 50.332 68.5653 49.9448 69.0371C49.4971 69.5937 49.11 70.0777 48.9164 70.5616C48.5292 70.1744 47.9485 69.872 47.3072 69.5211L47.2225 69.4727C46.7869 69.2428 46.3272 69.0008 45.8674 68.7105C45.7222 68.6137 45.5891 68.4927 45.444 68.3838C47.404 68.2507 49.3156 67.8998 51.1305 67.3433L51.1426 67.3554ZM44.0405 53.5262C37.5312 53.5262 32.2439 48.2268 32.2439 41.7296C32.2439 35.2324 37.5433 29.933 44.0405 29.933C50.5377 29.933 55.837 35.2324 55.837 41.7296C55.837 48.2268 50.5377 53.5262 44.0405 53.5262ZM48.0331 53.9254L43.9437 61.2937L39.6243 53.7681C41.0036 54.2763 42.4797 54.5667 44.0284 54.5667C45.4198 54.5667 46.7627 54.3368 48.021 53.9254H48.0331ZM56.6598 39.4429L60.4105 32.6674C60.4589 32.5827 60.4589 32.4859 60.4105 32.4133C60.3621 32.3286 60.2774 32.2802 60.1806 32.2802H52.7034C51.6387 31.3123 50.4288 30.5017 49.0858 29.9209H64.5241L56.6356 44.1373C56.7808 43.3509 56.8654 42.5523 56.8654 41.7296C56.8654 40.9432 56.7808 40.1809 56.6477 39.4429H56.6598ZM56.4904 38.6685C55.9338 36.4302 54.8086 34.4097 53.2478 32.8005H59.745L56.4904 38.6685ZM27.1502 28.8925C31.0945 24.1497 37.0351 21.137 43.6654 21.137C50.2957 21.137 56.2363 24.1618 60.1806 28.8925H27.1623H27.1502ZM38.971 29.933C37.628 30.5138 36.4181 31.3123 35.3534 32.2923H27.1381C27.0413 32.2923 26.9566 32.3407 26.9082 32.4254C26.8598 32.5101 26.8598 32.6069 26.9082 32.6916L31.2639 40.2898C31.2155 40.7617 31.1792 41.2456 31.1792 41.7417C31.1792 43.0605 31.3849 44.3309 31.7478 45.5287L22.8066 29.9451H38.9589L38.971 29.933ZM34.821 32.8126C33.0787 34.6033 31.8688 36.9021 31.4091 39.455L27.5979 32.8126H34.821ZM41.1367 63.9313C30.4895 62.673 22.1896 53.5988 22.1896 42.6128C22.1896 39.5639 22.8308 36.6722 23.9803 34.0467L41.1367 63.9313ZM63.3989 34.1193C64.5241 36.7206 65.1533 39.6002 65.1533 42.6128C65.1533 53.3447 57.2284 62.2496 46.92 63.8224L63.3989 34.1193ZM63.653 26.2186C63.774 26.2307 63.895 26.2428 64.0281 26.2549C64.4999 26.3396 64.9355 26.4727 65.3469 26.5937L65.6131 26.6663C66.2785 26.8599 66.9077 27.0535 67.4763 27.0414C67.2706 27.5253 67.2101 28.1424 67.1496 28.8562C67.0891 29.5096 67.0044 30.2718 66.7988 31.0824C66.5205 30.5259 66.2301 29.9814 65.9155 29.4612C65.9155 29.3523 65.9155 29.2434 65.855 29.1466C65.7945 29.0498 65.6978 28.9772 65.5889 28.9409C64.996 27.9972 64.3427 27.0898 63.6409 26.2307L63.653 26.2186ZM56.3936 16.6725C57.8213 15.9586 59.2006 15.8134 60.4105 15.6804C61.1122 15.6078 61.7535 15.5352 62.2979 15.3537C62.3463 15.9223 62.5399 16.5515 62.7577 17.2169C63.1207 18.3905 63.532 19.7214 63.4594 21.3185C63.4231 22.3953 62.8908 23.339 61.8382 24.2102C61.6325 24.0166 61.4389 23.823 61.2332 23.6294C61.1606 22.5163 60.8702 21.5605 60.6283 20.7499C60.35 19.8424 60.1322 19.1286 60.35 18.6325C60.3984 18.5115 60.3621 18.3784 60.2532 18.3058C60.1443 18.2333 59.9991 18.2575 59.9144 18.3542C59.5514 18.7656 58.8134 18.8503 57.8697 18.9471C57.0953 19.0318 56.1637 19.1286 55.1958 19.4553C54.9417 19.3343 54.6876 19.2012 54.4214 19.0923C54.6997 18.2575 55.22 17.229 56.3936 16.6604V16.6725ZM60.6404 23.1213C59.1885 21.8509 57.5914 20.7378 55.8733 19.8182C56.6114 19.6246 57.3131 19.54 57.9181 19.4795C58.6319 19.4069 59.2369 19.3343 59.7208 19.1286C59.7208 19.6488 59.9023 20.2417 60.108 20.9192C60.3016 21.5484 60.5194 22.2985 60.6404 23.1213ZM45.5045 13.7687C46.5571 12.5709 47.7791 11.9055 48.8438 11.3247C49.4608 10.9859 50.0416 10.6714 50.4772 10.2963C50.7554 10.8407 51.191 11.3731 51.6508 11.9176L51.8322 12.1474C52.1589 12.5467 52.5098 12.9702 52.8244 13.4178C53.2478 14.0954 53.5745 14.7487 53.8165 15.3779C54.3005 16.7088 53.8528 17.8703 53.4293 18.6567C53.1631 18.5478 52.897 18.4389 52.6187 18.3421C52.4614 18.0155 52.2799 17.6888 52.0621 17.35C51.7718 16.9266 51.4814 16.5636 51.191 16.2248L51.0095 16.007C50.3562 15.2206 49.8964 14.6156 49.9085 14.1075C49.9085 13.9744 49.8238 13.8655 49.6907 13.8413C49.5576 13.8171 49.4366 13.8897 49.4003 14.0107C49.2189 14.5188 48.5655 14.8818 47.7428 15.3295C47.0531 15.7046 46.2425 16.1522 45.4561 16.8177C45.1778 16.7935 44.8995 16.7814 44.6212 16.7693C44.5365 15.511 44.8148 14.5067 45.5045 13.7566V13.7687ZM51.8806 18.1002C50.0779 17.4952 48.1904 17.0838 46.2425 16.8903C46.8474 16.4426 47.4645 16.0917 47.9968 15.8013C48.626 15.4505 49.1705 15.1601 49.5334 14.785C49.727 15.2569 50.1142 15.7409 50.6223 16.3579L50.8038 16.5757C51.0821 16.9145 51.3725 17.2653 51.6387 17.6646C51.7355 17.8219 51.808 17.9671 51.8927 18.1244L51.8806 18.1002ZM64.3306 28.8925H60.846C56.805 23.8472 50.6223 20.6168 43.6775 20.6168C36.7326 20.6168 30.5379 23.8593 26.509 28.8925H23.0244C27.4769 22.2138 35.0751 17.7977 43.6896 17.7977C52.3041 17.7977 59.9023 22.2138 64.3548 28.8925H64.3306ZM21.7419 28.9409C21.633 28.9893 21.5362 29.0498 21.4757 29.1466C21.4153 29.2434 21.4032 29.3523 21.4153 29.4612C21.2338 29.7757 21.0523 30.0903 20.8829 30.4049C20.6893 29.6668 20.6046 28.9651 20.5441 28.3602C20.4715 27.6463 20.3989 27.0414 20.1933 26.5574H20.2054C20.7256 26.5574 21.3064 26.3759 21.9839 26.1581C22.6131 25.9645 23.3632 25.7468 24.1859 25.6258C23.2906 26.6542 22.4679 27.7552 21.7419 28.9288V28.9409ZM27.2833 22.6252C27.2954 22.5042 27.3075 22.3832 27.3196 22.2501C27.4043 21.7662 27.5374 21.3306 27.6584 20.9071L27.731 20.6531C27.9245 19.9876 28.1181 19.3464 28.106 18.7898C28.59 18.9955 29.207 19.056 29.9209 19.1165C30.5742 19.177 31.3365 19.2617 32.1471 19.4674C30.4048 20.3385 28.7715 21.3911 27.2833 22.6131V22.6252ZM36.2003 17.8582C36.5875 17.2048 37.0109 16.6483 37.3981 16.1764C37.8458 15.6199 38.2329 15.1359 38.4265 14.6519C38.8137 15.0391 39.3944 15.3416 40.0357 15.6925L40.1204 15.7409C40.5559 15.9707 41.0157 16.2127 41.4755 16.5031C41.6207 16.5999 41.7537 16.7209 41.8989 16.8298C39.9389 16.9629 38.0272 17.3137 36.2124 17.8703L36.2003 17.8582ZM34.337 15.269C34.8452 13.7566 35.7163 12.6677 36.4786 11.724C36.9262 11.1795 37.3255 10.6714 37.5917 10.1511C38.0514 10.5383 38.6806 10.8649 39.3823 11.2521C39.9026 11.5304 40.4349 11.8087 40.9552 12.1474C41.5602 12.5709 42.1288 13.0549 42.6128 13.5872C43.5686 14.6277 43.6049 15.8739 43.5081 16.7693C43.2177 16.7693 42.9395 16.7693 42.6491 16.7935C42.3587 16.5394 42.0683 16.2974 41.7416 16.0796C41.2577 15.7771 40.7737 15.511 40.3503 15.2932L40.2656 15.2448C39.4307 14.7971 38.7048 14.41 38.5112 13.9139C38.4628 13.7929 38.3418 13.7324 38.2087 13.7566C38.0877 13.7808 38.003 13.9018 38.003 14.0228C38.0393 14.5672 37.5675 15.148 36.9867 15.8739C36.4907 16.4789 35.9099 17.2048 35.4501 18.1244C35.184 18.2212 34.9057 18.3058 34.6395 18.4026C34.2523 17.6162 33.8894 16.5152 34.3249 15.2932L34.337 15.269ZM24.7062 18.7535C24.8151 18.2091 24.9603 17.7009 25.1055 17.2169L25.1902 16.9024C25.3958 16.2248 25.5894 15.5594 25.6257 14.9544C26.1702 15.1238 26.8235 15.1843 27.5253 15.2569C28.7473 15.3658 30.1266 15.4989 31.5785 16.1885C32.861 16.7814 33.357 17.9187 33.6232 18.7777C33.357 18.8866 33.1029 19.0076 32.8368 19.1286C31.7841 18.7656 30.792 18.6688 29.9693 18.5962C29.0256 18.5115 28.2875 18.4389 27.9124 18.0397C27.8277 17.9429 27.6826 17.9308 27.5737 18.0034C27.4648 18.076 27.4285 18.2091 27.489 18.33C27.7189 18.8019 27.5374 19.5037 27.2349 20.52L27.1623 20.7741C27.0292 21.2096 26.9082 21.6573 26.8114 22.1775C26.763 22.5163 26.7267 22.8309 26.7025 23.1334C26.4848 23.3149 26.2791 23.5084 26.0734 23.702C25.4079 23.1213 24.6457 22.2501 24.5731 20.9434C24.5368 20.2659 24.5731 19.54 24.6941 18.7656L24.7062 18.7535ZM16.745 25.8557C16.6724 25.1539 16.5998 24.5127 16.4183 23.9682C16.987 23.9198 17.6162 23.7262 18.2816 23.5084C19.4552 23.1455 20.7982 22.7341 22.3832 22.8067C23.46 22.843 24.4037 23.3753 25.2748 24.4401C25.0813 24.6457 24.8877 24.8393 24.6941 25.0571C23.581 25.1297 22.6252 25.4201 21.8266 25.6621C20.9192 25.9403 20.2054 26.1702 19.7093 25.9403C19.5883 25.8919 19.4552 25.9282 19.3826 26.0371C19.31 26.146 19.3342 26.2912 19.431 26.3759C19.8424 26.7389 19.9271 27.4769 20.0239 28.4206C20.1086 29.195 20.2053 30.1266 20.532 31.0945C20.411 31.3486 20.2779 31.6027 20.1691 31.8689C19.3342 31.5906 18.3058 31.0703 17.7371 29.8846C17.0233 28.4569 16.8781 27.0777 16.745 25.8677V25.8557ZM14.8334 40.7738C13.6356 39.7212 12.9701 38.4992 12.3894 37.4344C12.0506 36.8174 11.736 36.2366 11.361 35.8011C11.9054 35.5228 12.4378 35.0751 12.9822 34.6275L13.2242 34.4339C13.6235 34.1072 14.0348 33.7684 14.4825 33.4538C15.16 33.0304 15.8013 32.7037 16.4425 32.4617C17.7734 31.9778 18.9349 32.4254 19.7214 32.8489C19.6125 33.1151 19.5036 33.3813 19.4068 33.6595C19.0801 33.8168 18.7535 33.9983 18.4147 34.2161C17.9912 34.5065 17.6283 34.8089 17.2774 35.0872L17.0717 35.2566C16.2853 35.8979 15.6924 36.3576 15.1842 36.3576H15.1721C15.027 36.3576 14.9302 36.4423 14.906 36.5754C14.8818 36.6964 14.9544 36.8295 15.0754 36.8658C15.5835 37.0473 15.9465 37.7006 16.3942 38.5233C16.7692 39.213 17.2169 40.0236 17.8823 40.8101C17.8581 41.0883 17.846 41.3666 17.8339 41.6449C16.5635 41.7296 15.5714 41.4513 14.8213 40.7617L14.8334 40.7738ZM16.8539 38.2814C16.503 37.6522 16.2127 37.1078 15.8376 36.7448C16.3579 36.527 16.866 36.1035 17.4105 35.668L17.6162 35.4986C17.9549 35.2203 18.3058 34.9299 18.7051 34.6517C18.8624 34.5549 19.0075 34.4823 19.1648 34.3976C18.5599 36.2003 18.1485 38.0878 17.9549 40.0357C17.5073 39.4308 17.1564 38.8137 16.866 38.2814H16.8539ZM18.9229 50.0779C18.2695 49.6908 17.7129 49.2552 17.2411 48.8801C16.6845 48.4325 16.2006 48.0453 15.7166 47.8517C16.1038 47.4645 16.4063 46.8838 16.7571 46.2425L16.7934 46.182C17.0354 45.7344 17.2774 45.2746 17.5678 44.8027C17.6646 44.6576 17.7855 44.5245 17.8944 44.3793C18.0275 46.3393 18.3784 48.251 18.935 50.0658L18.9229 50.0779ZM16.3337 51.9412C14.8213 51.433 13.7324 50.5619 12.7886 49.7997C12.2321 49.352 11.736 48.9527 11.2158 48.6865C11.6029 48.2268 11.9296 47.5976 12.3168 46.8959C12.5951 46.3756 12.8733 45.8433 13.2121 45.3109C13.6356 44.6939 14.1195 44.1373 14.6519 43.6533C15.6924 42.6975 16.9386 42.6612 17.8339 42.758C17.8339 43.0484 17.8339 43.3267 17.8581 43.617C17.6041 43.9074 17.3621 44.1978 17.1443 44.5245C16.8297 45.0205 16.5756 45.5166 16.3337 45.9522L16.2974 46.0127C15.8497 46.8475 15.4625 47.5734 14.9665 47.767C14.8455 47.8154 14.785 47.9364 14.8092 48.0695C14.8334 48.1905 14.9544 48.2873 15.0754 48.2752C15.6319 48.251 16.1885 48.7107 16.9265 49.3036C17.5315 49.7997 18.2574 50.3804 19.1769 50.8402C19.2737 51.1064 19.3584 51.3846 19.4552 51.6508C18.6688 52.038 17.5799 52.401 16.3458 51.9654L16.3337 51.9412ZM21.996 61.693C21.3185 61.7293 20.5925 61.693 19.8182 61.572C19.2737 61.4631 18.7656 61.3179 18.2816 61.1849L17.967 61.1002C17.2895 60.8945 16.624 60.7009 16.0191 60.6646C16.1885 60.1201 16.249 59.4668 16.3216 58.765C16.4304 57.543 16.5635 56.1638 17.2532 54.7119C17.846 53.4294 18.9833 52.9212 19.8424 52.6671C19.9513 52.9333 20.0723 53.1874 20.1933 53.4536C19.8303 54.5062 19.7335 55.4983 19.6609 56.321C19.5762 57.2648 19.5036 58.0028 19.1043 58.3779C19.0075 58.4626 18.9954 58.6078 19.068 58.7167C19.1406 58.8255 19.2737 58.8618 19.3947 58.8013C19.8666 58.5715 20.5683 58.7529 21.5846 59.0554L21.8508 59.128C22.2743 59.249 22.722 59.3821 23.2301 59.4789C23.5568 59.5273 23.8835 59.5636 24.1859 59.5878C24.3674 59.8056 24.561 60.0112 24.7546 60.2169C24.1738 60.8824 23.3027 61.6446 21.996 61.7172V61.693ZM20.5441 54.119C21.4153 55.8613 22.4679 57.4946 23.702 58.9828C23.581 58.9707 23.46 58.9586 23.3269 58.9465C22.855 58.8618 22.4195 58.7287 22.0081 58.6078L21.7419 58.5352C21.1007 58.3416 20.4715 58.1601 19.9271 58.1601C19.915 58.1601 19.8908 58.1601 19.8787 58.1601C20.0844 57.6761 20.1449 57.0591 20.2054 56.3452C20.2658 55.6919 20.3505 54.9297 20.5562 54.1311L20.5441 54.119ZM30.9614 68.529C29.5337 69.2428 28.1544 69.388 26.9445 69.5211C26.2428 69.5937 25.6015 69.6663 25.0571 69.8478C25.0087 69.2791 24.8151 68.65 24.5973 67.9845C24.2343 66.8109 23.823 65.48 23.8956 63.8829C23.9319 62.8061 24.4642 61.8624 25.5289 60.9913C25.7346 61.1849 25.9282 61.3784 26.1339 61.572C26.2065 62.6851 26.4969 63.641 26.7388 64.4516C27.0171 65.359 27.2349 66.0729 27.0171 66.5689C26.9687 66.6899 27.005 66.823 27.1139 66.8956C27.1623 66.9198 27.2107 66.9319 27.2591 66.9319C27.3317 66.9319 27.4043 66.9077 27.4527 66.8472C27.8156 66.4358 28.5537 66.3511 29.4974 66.2544C30.2718 66.1697 31.2034 66.0729 32.1713 65.7462C32.4254 65.8672 32.6795 66.0003 32.9456 66.1092C32.6674 66.944 32.1471 67.9724 30.9735 68.5411L30.9614 68.529ZM26.7146 62.0681C28.1665 63.3385 29.7636 64.4516 31.4817 65.3711C30.7436 65.5647 30.0419 65.6494 29.4369 65.7099C28.7231 65.7825 28.1181 65.8551 27.6342 66.0608C27.6342 65.5405 27.4527 64.9477 27.247 64.2701C27.0534 63.641 26.8356 62.8908 26.7146 62.0681ZM41.8505 71.4206C40.7979 72.6185 39.5759 73.2839 38.5112 73.8647C37.8942 74.2034 37.3134 74.518 36.8778 74.8931C36.5996 74.3486 36.164 73.8163 35.7042 73.2718L35.4985 73.0298C35.1719 72.6306 34.8331 72.2192 34.5306 71.7715C34.1072 71.094 33.7805 70.4527 33.5385 69.8115C33.0545 68.4806 33.5022 67.3191 33.9257 66.5326C34.1918 66.6415 34.458 66.7504 34.7363 66.8472C34.8936 67.1739 35.0751 67.5006 35.2929 67.8393C35.5832 68.2628 35.8736 68.6258 36.164 68.9766L36.3334 69.1823C36.9867 69.9688 37.4465 70.5737 37.4344 71.0819C37.4344 71.215 37.5191 71.3239 37.6522 71.3481C37.6643 71.3481 37.6885 71.3481 37.7006 71.3481C37.8095 71.3481 37.9063 71.2755 37.9425 71.1787C38.124 70.6705 38.7774 70.3075 39.6001 69.8599C40.2898 69.4848 41.1004 69.0371 41.8868 68.3717C42.1651 68.3959 42.4434 68.408 42.7217 68.4201C42.8064 69.6784 42.5281 70.6826 41.8384 71.4327L41.8505 71.4206ZM35.4743 67.0892C37.2771 67.6941 39.1646 68.1055 41.1125 68.2991C40.5075 68.7468 39.8905 69.0976 39.3581 69.388C38.729 69.7389 38.1845 70.0293 37.8216 70.4043C37.628 69.9325 37.2408 69.4485 36.7326 68.8315L36.5633 68.6258C36.285 68.287 35.9946 67.9361 35.7284 67.5369C35.6316 67.3796 35.559 67.2344 35.4743 67.0771V67.0892ZM18.8624 42.5765C18.8624 38.2088 19.9997 34.0951 21.996 30.5259L23.6778 33.4538C22.4074 36.2366 21.6693 39.3219 21.6693 42.5765C21.6693 53.9617 30.3685 63.3627 41.4634 64.4637L43.133 67.3675C29.7031 67.0771 18.8624 56.067 18.8624 42.5644V42.5765ZM34.5427 50.2957C35.7405 51.6145 37.2045 52.6913 38.8621 53.4294L43.7259 61.9108C43.7743 61.9955 43.859 62.0439 43.9558 62.0439C44.0284 62.0439 44.1373 61.9955 44.1857 61.9108L48.7954 53.6109C50.2836 53.018 51.6387 52.1469 52.7881 51.0701L44.0405 66.8472L34.5427 50.2957ZM53.018 69.9083C52.5098 71.4206 51.6387 72.5096 50.8764 73.4533C50.4288 73.9977 50.0295 74.5059 49.7754 75.0262C49.3156 74.6511 48.7228 74.3244 48.0694 73.9735L47.9727 73.9251C47.4645 73.6469 46.9321 73.3686 46.4119 73.0419C45.8069 72.6185 45.2383 72.1345 44.7543 71.6021C43.7985 70.5616 43.7622 69.3033 43.859 68.4201C43.9195 68.4201 43.98 68.4201 44.0405 68.4201C44.0405 68.4201 44.0647 68.4201 44.0768 68.4201C44.0768 68.4201 44.101 68.4201 44.1131 68.4201C44.3187 68.4201 44.5244 68.4201 44.718 68.408C45.0084 68.6621 45.2988 68.904 45.6254 69.1218C46.1094 69.4243 46.5934 69.6905 47.0168 69.9083L47.1015 69.9567C47.9364 70.4043 48.6623 70.7915 48.8559 71.2876C48.8922 71.3843 48.989 71.4569 49.0979 71.4569C49.1221 71.4569 49.1342 71.4569 49.1584 71.4569C49.2794 71.4327 49.364 71.3118 49.364 71.1908C49.3277 70.6463 49.7996 70.0777 50.3804 69.3396C50.8764 68.7347 51.4572 68.0087 51.9169 67.0892C52.1831 66.9924 52.4614 66.9077 52.7276 66.8109C53.1147 67.5974 53.4777 68.6984 53.0422 69.9204L53.018 69.9083ZM62.6488 66.4237C62.552 66.9682 62.3947 67.4643 62.2616 67.9482L62.1648 68.2749C61.9591 68.9524 61.7656 69.6179 61.7293 70.2228C61.1848 70.0535 60.5315 69.993 59.8297 69.9204C58.6077 69.8115 57.2284 69.6784 55.7765 68.9887C54.494 68.3959 53.998 67.2586 53.7318 66.3995C53.998 66.2907 54.2521 66.1697 54.5182 66.0487C55.5709 66.4116 56.563 66.5084 57.3857 66.581C58.3294 66.6657 59.0675 66.7383 59.4425 67.1376C59.4909 67.1981 59.5635 67.2223 59.6361 67.2223C59.6845 67.2223 59.7329 67.2102 59.7813 67.1739C59.8902 67.1013 59.9265 66.9682 59.866 66.8472C59.624 66.3391 59.866 65.5284 60.1201 64.6573L60.1927 64.4032C60.3258 63.9676 60.4468 63.52 60.5436 63.0118C60.592 62.673 60.6283 62.3585 60.6525 62.056C60.8702 61.8745 61.0759 61.6809 61.2816 61.4873C61.947 62.0681 62.7093 62.9392 62.7819 64.2459C62.8182 64.9235 62.7819 65.6494 62.6609 66.4237H62.6488ZM70.61 59.3216C70.6826 60.0233 70.7552 60.6646 70.9366 61.2091C70.368 61.2575 69.7388 61.451 69.0734 61.6688C67.8998 62.0318 66.5689 62.4553 64.9718 62.3706C63.895 62.3343 62.9513 61.8019 62.0801 60.7372C62.2737 60.5315 62.4673 60.3258 62.6609 60.1201C63.774 60.0475 64.7298 59.7693 65.5284 59.5152C66.4358 59.2369 67.1496 59.007 67.6457 59.2369C67.7667 59.2853 67.8998 59.249 67.9724 59.1401C68.045 59.0312 68.0208 58.886 67.924 58.8013C67.5126 58.4384 67.4279 57.7003 67.3311 56.7566C67.2464 55.9823 67.1496 55.0506 66.823 54.0827C66.944 53.8286 67.077 53.5746 67.1859 53.3084C68.0208 53.5867 69.0492 54.1069 69.6178 55.2926C70.3317 56.7203 70.4769 58.0996 70.61 59.3095V59.3216ZM72.5216 44.4035C73.7194 45.4561 74.3849 46.6781 74.9656 47.7428C75.3044 48.3599 75.619 48.9406 75.994 49.3762C75.4496 49.6545 74.9172 50.1021 74.3728 50.5498L74.1308 50.7434C73.7315 51.0701 73.3201 51.4088 72.8725 51.7234C72.1949 52.1469 71.5537 52.4735 70.9124 52.7155C69.5815 53.1995 68.42 52.7518 67.6336 52.3284C67.7425 52.0622 67.8514 51.796 67.9482 51.5177C68.2748 51.3604 68.6015 51.1789 68.9403 50.9612C69.3638 50.6708 69.7267 50.3683 70.0776 50.09L70.2833 49.9206C71.0697 49.2794 71.6626 48.8196 72.1707 48.8196H72.1828C72.2917 48.8196 72.4248 48.7349 72.449 48.6018C72.4732 48.4809 72.4006 48.3478 72.2796 48.3115C71.7715 48.13 71.4085 47.4766 70.9608 46.6539C70.5858 45.9643 70.1381 45.1536 69.4726 44.3672C69.4968 44.0889 69.5089 43.8106 69.521 43.5324C70.7793 43.4477 71.7836 43.7259 72.5337 44.4156L72.5216 44.4035ZM69.5331 42.4192C69.5331 42.1289 69.5331 41.8506 69.5089 41.5602C69.763 41.2698 70.005 40.9795 70.2228 40.6528C70.5374 40.1567 70.7914 39.6607 71.0334 39.2251L71.0697 39.1646C71.5174 38.3298 71.9046 37.6038 72.4006 37.4102C72.5216 37.3618 72.5821 37.2409 72.5579 37.1078C72.5337 36.9868 72.4248 36.89 72.2917 36.9021C71.7473 36.9384 71.1786 36.4665 70.4406 35.8858C69.8356 35.3897 69.1097 34.8089 68.1902 34.3492C68.0934 34.083 68.0087 33.8047 67.9119 33.5385C68.6983 33.1514 69.7872 32.7884 71.0213 33.224C72.5337 33.7321 73.6226 34.6033 74.5664 35.3655C75.1229 35.8132 75.619 36.2124 76.1392 36.4786C75.7521 36.9384 75.4254 37.5675 75.0382 38.2693C74.7599 38.7895 74.4817 39.3219 74.1429 39.8542C73.7194 40.4592 73.2355 41.0279 72.7031 41.5118C71.6626 42.4676 70.4043 42.5039 69.521 42.4071L69.5331 42.4192Z" fill="#24224C"/>
<path d="M44.0404 31.4575C38.3901 31.4575 33.7925 36.0552 33.7925 41.7054C33.7925 47.3557 38.3901 51.9533 44.0404 51.9533C49.6906 51.9533 54.2883 47.3557 54.2883 41.7054C54.2883 36.0552 49.6906 31.4575 44.0404 31.4575ZM44.0404 51.433C38.6805 51.433 34.3127 47.0653 34.3127 41.7054C34.3127 36.3455 38.6805 31.9778 44.0404 31.9778C49.4002 31.9778 53.768 36.3455 53.768 41.7054C53.768 47.0653 49.4002 51.433 44.0404 51.433Z" fill="#24224C"/>
</svg>
