<svg width="24" height="21" viewBox="0 0 24 21" fill="none" xmlns="http://www.w3.org/2000/svg">
<path d="M23.9997 0.736143C23.9847 0.986136 23.6947 6.83598 19.8348 10.6959C19.6798 10.8509 19.5348 10.9959 19.3948 11.1209C18.4198 12.0408 17.1999 12.5708 16.0599 12.5708C15.2099 12.5708 14.4799 12.2858 13.94 11.7458L13.3 11.1059C13.115 11.1859 12.925 11.2609 12.73 11.3309C11.865 11.6408 11.285 12.3258 10.905 13.1758C10.88 13.2308 10.86 13.2808 10.84 13.3358C10.84 13.3408 10.835 13.3458 10.835 13.3458C10.0251 15.3207 10.2101 18.0807 10.3201 19.1256H14.195C14.4699 19.1256 14.6949 19.3506 14.6949 19.6256C14.6949 19.9006 14.4699 20.1256 14.195 20.1256H5.3502C5.0752 20.1256 4.85021 19.9006 4.85021 19.6256C4.85021 19.3506 5.0752 19.1256 5.3502 19.1256H9.31009C9.18509 17.9257 9.0301 15.1158 9.92007 12.9558C9.92507 12.4058 9.83007 9.6909 7.46014 8.00594L7.22514 8.24094C6.82016 8.64593 6.27517 8.85592 5.65019 8.85592C4.82021 8.85592 3.94023 8.47593 3.23525 7.81595C3.13526 7.72595 3.03526 7.62596 2.92526 7.51596C0.210336 4.80103 0.00534123 0.696144 0.000341371 0.521149C-0.00465849 0.381153 0.0453401 0.246156 0.145337 0.146159C0.245335 0.0461618 0.370331 -0.00883664 0.520327 0.00116308C0.695322 0.00616295 4.80021 0.211157 7.51514 2.92608C7.62513 3.03608 7.72513 3.13608 7.81513 3.23607C9.0151 4.51104 9.20009 6.26599 8.24012 7.22597L8.17012 7.29596C9.87007 8.55593 10.5251 10.2709 10.77 11.5108C11.195 11.0209 11.73 10.6259 12.395 10.3909C12.44 10.3759 12.485 10.3559 12.53 10.3359L12.47 10.2759C11.17 8.97092 11.44 6.57598 13.09 4.82103C13.22 4.68104 13.36 4.53604 13.52 4.38104C17.3799 0.521149 23.2297 0.226157 23.4747 0.216157C23.6297 0.211158 23.7547 0.266156 23.8497 0.361153C23.9497 0.461151 24.0047 0.596147 23.9997 0.736143Z" fill="#5ED4BF"/>
</svg>
