<svg width="65" height="41" viewBox="0 0 65 41" fill="none" xmlns="http://www.w3.org/2000/svg">
<path fill-rule="evenodd" clip-rule="evenodd" d="M41.4284 19.2798C41.4284 15.8227 40.5617 12.5719 39.0344 9.73039C37.5526 6.97441 35.4478 4.59513 32.9075 2.77936C30.3672 4.59513 28.2624 6.97441 26.7806 9.73039C25.2529 12.5719 24.3866 15.8227 24.3866 19.2798C24.3866 22.737 25.2529 25.9868 26.7806 28.8283C28.2624 31.5846 30.3672 33.9632 32.9075 35.7797C35.4478 33.9632 37.5526 31.5846 39.0344 28.8283C40.5617 25.9868 41.4284 22.7363 41.4284 19.2798ZM40.7841 8.80466C42.4652 11.9323 43.4192 15.4992 43.4192 19.2798C43.4192 23.0605 42.4652 26.6264 40.7841 29.754C39.0416 32.9941 36.5165 35.7578 33.4598 37.7954L32.9075 38.1633L32.3552 37.7954C29.2985 35.7578 26.7731 32.9941 25.0309 29.754C23.3498 26.6264 22.3955 23.0595 22.3955 19.2798C22.3955 15.5002 23.3498 11.9323 25.0309 8.80466C26.7731 5.56462 29.2988 2.80123 32.3552 0.763962L32.9075 0.39502L33.4598 0.763962C36.5162 2.80123 39.0416 5.56462 40.7841 8.80466Z" fill="url(#paint0_linear_8_130)"/>
<path fill-rule="evenodd" clip-rule="evenodd" d="M14.8824 26.8624C12.9742 23.585 11.9996 20.0221 11.8794 16.4822C11.7548 12.8163 12.5485 9.17229 14.1685 5.89152L15.298 3.60278L16.0119 6.05343C17.1675 10.0233 20.8094 12.7621 24.5233 15.5554C30.9809 20.412 37.6439 25.4237 33.8563 37.275L33.62 38.0136L32.8413 37.9614C29.1654 37.7126 25.5842 36.5708 22.443 34.6291C19.4172 32.7588 16.7951 30.1418 14.8838 26.8611L14.8824 26.8624ZM13.8623 16.4206C13.972 19.6414 14.8607 22.8858 16.6012 25.8754V25.8791C18.339 28.8643 20.7303 31.2487 23.4927 32.9561C26.1325 34.5874 29.1121 35.6003 32.185 35.9268C35.0285 25.9246 29.0886 21.4542 23.326 17.1207C20.0507 14.6576 16.8283 12.2339 15.0437 8.88784C14.1811 11.2914 13.7747 13.8491 13.8623 16.4206Z" fill="url(#paint1_linear_8_130)"/>
<path fill-rule="evenodd" clip-rule="evenodd" d="M12.1981 37.1523C8.88783 35.2577 6.24803 32.6573 4.36154 29.6559C2.40376 26.5411 1.25225 22.99 1.00103 19.3447L0.845215 17.0825L2.61866 18.5155C6.21103 21.418 10.6908 22.1488 15.1166 22.8702C22.7552 24.116 30.2462 25.338 33.8562 36.681L34.1125 37.4869L33.3426 37.8609C30.034 39.4673 26.3588 40.254 22.6619 40.1301C19.0953 40.0106 15.5039 39.0448 12.1981 37.1523ZM6.0491 28.6151C7.77094 31.3545 10.1758 33.7254 13.1853 35.4483C16.2006 37.1742 19.4738 38.0551 22.724 38.1642C25.8095 38.2672 28.8757 37.6771 31.6829 36.4578C28.3366 27.0231 21.6312 25.9281 14.7978 24.8139C10.8269 24.1665 6.81531 23.5118 3.24805 21.3594C3.7033 23.9215 4.6501 26.3896 6.0491 28.6151Z" fill="url(#paint2_linear_8_130)"/>
<path fill-rule="evenodd" clip-rule="evenodd" d="M49.2137 25.8791C50.9535 22.8902 51.8426 19.6441 51.9523 16.4206C52.0395 13.8491 51.6328 11.291 50.7705 8.88784C48.9866 12.2332 45.7639 14.6576 42.4886 17.1207C36.7263 21.4542 30.7857 25.9246 33.6295 35.9268C36.7025 35.6003 39.6825 34.5874 42.3223 32.9561C45.0846 31.2487 47.4759 28.8643 49.2137 25.8791ZM53.9348 16.4822C53.8147 20.0198 52.8404 23.581 50.9321 26.8584C49.0215 30.1405 46.3984 32.7585 43.3719 34.6291C40.2304 36.5708 36.6492 37.7126 32.9737 37.9614L32.1949 38.0136L31.9586 37.275C28.1704 25.423 34.8337 20.4116 41.2909 15.5554C45.0058 12.7621 48.6474 10.0233 49.803 6.05343L50.5163 3.60278L51.6464 5.89152C53.2657 9.17229 54.0594 12.8163 53.9348 16.4822Z" fill="url(#paint3_linear_8_130)"/>
<path fill-rule="evenodd" clip-rule="evenodd" d="M52.6285 35.4483C55.6387 33.7254 58.0436 31.3545 59.7654 28.6147C61.1644 26.3896 62.1116 23.9215 62.5661 21.3594C58.9989 23.5118 54.9872 24.1665 51.0167 24.8139C44.183 25.9281 37.4779 27.0231 34.1317 36.4578C36.9385 37.6771 40.005 38.2672 43.0902 38.1642C46.3383 38.0551 49.6102 37.1742 52.6245 35.4483H52.6285ZM61.453 29.6556C59.5668 32.6563 56.9277 35.2564 53.6192 37.1509L53.6202 37.1523C50.3147 39.0448 46.7223 40.0106 43.1527 40.1301C39.4554 40.254 35.7802 39.4673 32.4716 37.8609L31.7017 37.4869L31.9583 36.681C35.568 25.338 43.0593 24.116 50.6979 22.8702C55.1234 22.1488 59.6035 21.418 63.1959 18.5155L64.969 17.0825L64.8132 19.3447C64.5623 22.99 63.4108 26.5411 61.453 29.6556Z" fill="url(#paint4_linear_8_130)"/>
<defs>
<linearGradient id="paint0_linear_8_130" x1="32.9073" y1="49.0633" x2="32.9073" y2="-14.3962" gradientUnits="userSpaceOnUse">
<stop stop-color="#24574E"/>
<stop offset="1" stop-color="#17D5B3"/>
</linearGradient>
<linearGradient id="paint1_linear_8_130" x1="23.4134" y1="47.9446" x2="23.4134" y2="-9.8735" gradientUnits="userSpaceOnUse">
<stop stop-color="#24574E"/>
<stop offset="1" stop-color="#17D5B3"/>
</linearGradient>
<linearGradient id="paint2_linear_8_130" x1="17.4789" y1="46.798" x2="17.4789" y2="8.05144" gradientUnits="userSpaceOnUse">
<stop stop-color="#24574E"/>
<stop offset="1" stop-color="#17D5B3"/>
</linearGradient>
<linearGradient id="paint3_linear_8_130" x1="42.401" y1="47.9446" x2="42.401" y2="-9.8735" gradientUnits="userSpaceOnUse">
<stop stop-color="#24574E"/>
<stop offset="1" stop-color="#17D5B3"/>
</linearGradient>
<linearGradient id="paint4_linear_8_130" x1="48.3353" y1="46.798" x2="48.3353" y2="8.05144" gradientUnits="userSpaceOnUse">
<stop stop-color="#24574E"/>
<stop offset="1" stop-color="#17D5B3"/>
</linearGradient>
</defs>
</svg>
